<svg 
  viewBox="0 0 300 100" 
  xmlns="http://www.w3.org/2000/svg"
 >
  <defs>
    <linearGradient id="primaryGradient" x1="0%" y1="0%" x2="100%" y2="100%">
      <stop offset="0%" style="stop-color:#1e3a8a"/>
      <stop offset="50%" style="stop-color:#7c3aed"/>
      <stop offset="100%" style="stop-color:#0891b7"/>
    </linearGradient>
    
    <linearGradient id="accentGradient" x1="0%" y1="0%" x2="100%" y2="0%">
      <stop offset="0%" style="stop-color:#6366f1"/>
      <stop offset="100%" style="stop-color:#8b5cf6"/>
    </linearGradient>
    
    <radialGradient id="glowGradient" cx="50%" cy="50%" r="50%">
      <stop offset="0%" style="stop-color:#7c3aed;stop-opacity:0.3"/>
      <stop offset="100%" style="stop-color:#7c3aed;stop-opacity:0"/>
    </radialGradient>
  </defs>
  
  <circle cx="120" cy="40" r="35" fill="url(#glowGradient)"/>
  
  <g transform="translate(120,40)">
    <circle cx="0" cy="0" r="22" fill="none" stroke="url(#primaryGradient)" stroke-width="2.5" opacity="0.6" stroke-dasharray="2,2"/>
    <circle cx="0" cy="0" r="16" fill="none" stroke="url(#primaryGradient)" stroke-width="1.8" opacity="0.8"/>
    
    <g fill="url(#primaryGradient)">
      <path d="M 0,-14 L 5,-5 L 0,-8 L -5,-5 Z" opacity="1"/>
      <path d="M 14,0 L 5,5 L 8,0 L 5,-5 Z" opacity="0.5"/>
      <path d="M 0,14 L 5,5 L 0,8 L -5,5 Z" opacity="0.5"/>
      <path d="M -14,0 L -5,5 L -8,0 L -5,-5 Z" opacity="0.5"/>
    </g>
    
    <circle cx="0" cy="0" r="4" fill="url(#accentGradient)" opacity="0.9"/>
    <circle cx="0" cy="0" r="2.5" fill="#ffffff" opacity="0.95"/>
    <circle cx="0" cy="0" r="1" fill="url(#accentGradient)"/>
    
    <circle cx="6" cy="-6" r="1" fill="url(#accentGradient)" opacity="0.7"/>
    <circle cx="-6" cy="6" r="1" fill="url(#accentGradient)" opacity="0.7"/>
  </g>
  
  <line x1="72" y1="40" x2="95" y2="40" stroke="url(#primaryGradient)" stroke-width="1" opacity="0.3"/>
  
  <text x="155" y="48" 
        font-family="'SF Pro Display', 'Helvetica Neue', -apple-system, sans-serif" 
        font-size="28" 
        font-weight="700" 
        fill="url(#primaryGradient)" 
        letter-spacing="-0.02em">
    Sarthi
  </text>
  
  <g transform="translate(105,20)">
    <rect x="120" y="32" width="20" height="12" rx="6" fill="url(#accentGradient)" opacity="0.15"/>
    <text x="130" y="41" 
          font-family="'SF Pro Display', 'Helvetica Neue', -apple-system, sans-serif" 
          font-size="13" 
          font-weight="800" 
          fill="url(#accentGradient)" 
          text-anchor="middle" 
          letter-spacing="0.1em">
      ai
    </text>
  </g>
</svg>
