<?xml version="1.0" encoding="UTF-8"?>
<svg version="1.1" xmlns="http://www.w3.org/2000/svg" width="512" height="512">
<path d="M0 0 C0.68904566 -0.00226556 1.37809133 -0.00453111 2.08801717 -0.00686532 C4.37845364 -0.01315492 6.66883018 -0.01237923 8.95927429 -0.0115509 C10.60908585 -0.01454554 12.25889672 -0.01794878 13.90870667 -0.02172852 C18.37783308 -0.03054168 22.84694034 -0.0329055 27.31607461 -0.0335443 C30.11176199 -0.03425633 32.90744454 -0.03639354 35.70313072 -0.03904152 C45.46641218 -0.04828607 55.22968001 -0.05237752 64.9929657 -0.05158997 C74.07755705 -0.05098942 83.16208898 -0.06153908 92.2466653 -0.07733363 C100.06006438 -0.09043148 107.87344409 -0.09577292 115.68685406 -0.09513456 C120.34731112 -0.09488023 125.00771533 -0.09769531 129.66816139 -0.10831261 C134.05372366 -0.11803143 138.43918298 -0.11804694 142.82474899 -0.11079597 C144.42827569 -0.10975483 146.03180893 -0.11208493 147.63532448 -0.11815643 C171.89335775 -0.20400972 171.89335775 -0.20400972 180.80961609 8.13371277 C185.36845324 14.20577738 187.91967904 19.53776433 187.95678711 27.1410675 C187.96752007 28.65480705 187.96752007 28.65480705 187.97846985 30.1991272 C187.98115875 31.30047501 187.98384766 32.40182281 187.98661804 33.5365448 C187.99318924 34.70124802 187.99976044 35.86595123 188.00653076 37.06594849 C188.02625765 40.92447474 188.03792577 44.78296205 188.04789734 48.64152527 C188.05197287 49.96031551 188.05604839 51.27910576 188.06024742 52.63785934 C188.07929102 58.89986352 188.09352176 65.161856 188.10185939 71.42388356 C188.1116182 78.63284691 188.13790532 85.84150211 188.17836028 93.05035698 C188.20861255 98.63441437 188.22333699 104.2183839 188.2266404 109.80252159 C188.22898128 113.13188017 188.23981514 116.46064876 188.26310158 119.78996658 C188.28751255 123.51172982 188.28652361 127.23269435 188.27958679 130.95451355 C188.29880188 132.58831718 188.29880188 132.58831718 188.31840515 134.25512695 C188.26088399 142.75495191 186.27427387 149.29174622 181.68461609 156.44621277 C175.28313716 162.43020394 167.66367343 165.28760991 158.94633484 165.23136902 C158.14671326 165.22887146 157.34709167 165.2263739 156.52323914 165.22380066 C155.52461853 165.21469666 154.52599792 165.20559265 153.49711609 165.19621277 C148.70180359 165.16527527 148.70180359 165.16527527 143.80961609 165.13371277 C143.80961609 174.37371277 143.80961609 183.61371277 143.80961609 193.13371277 C146.90723328 193.07570496 150.00485046 193.01769714 153.19633484 192.95793152 C156.23805692 192.9187988 159.27974962 192.88851824 162.32157898 192.85905457 C164.41545928 192.83410251 166.50925423 192.80012821 168.60282898 192.7565155 C183.4145441 192.45596745 195.265621 192.53434225 207.24711609 202.32121277 C213.03154152 207.95514908 217.1234309 214.52285475 219.80961609 222.13371277 C219.80961609 223.12371277 219.80961609 224.11371277 219.80961609 225.13371277 C220.54199084 225.1300256 221.2743656 225.12633842 222.02893353 225.12253952 C239.84764933 225.03420952 257.66632145 224.96801343 275.48520947 224.92646408 C284.10229542 224.90583714 292.71923525 224.8777141 301.33622742 224.83195496 C308.84663961 224.79209113 316.35694598 224.76628091 323.86746103 224.75735879 C327.84442355 224.75214323 331.82108333 224.73988234 335.79794884 224.71079254 C339.54163568 224.6836304 343.28489524 224.67526924 347.02867126 224.68128204 C349.05668589 224.67965793 351.08465405 224.65813931 353.11254883 224.6360321 C354.32264618 224.64153076 355.53274353 224.64702942 356.7795105 224.6526947 C358.35439381 224.64716394 358.35439381 224.64716394 359.96109295 224.64152145 C363.54094599 225.26007798 365.21334952 226.64516616 367.80961609 229.13371277 C371.62510465 236.7646899 368.04265743 248.90628346 366.83769226 256.94914246 C366.62516474 258.40727452 366.41330536 259.8655041 366.20205688 261.32382202 C365.63081212 265.25232156 365.04961086 269.17928507 364.46597075 273.10595989 C363.97829281 276.39345519 363.49560683 279.68167559 363.01290208 282.96990418 C361.87407695 290.72723296 360.72718803 298.48333925 359.57499695 306.23869324 C358.38853967 314.22554502 357.21490451 322.21420569 356.04766482 330.20388675 C355.04233616 337.08248698 354.02951382 343.95995467 353.01060659 350.83655667 C352.40329078 354.93565225 351.79868291 359.03509849 351.20111656 363.13562775 C350.6393154 366.98819457 350.0681184 370.8392546 349.48977089 374.68937111 C349.27965937 376.09854467 349.07279296 377.50820667 348.86949158 378.91837883 C346.47951217 395.46381669 346.47951217 395.46381669 342.80961609 399.13371277 C343.49064392 399.1535321 344.17167175 399.17335144 344.87333679 399.19377136 C347.95665525 399.2889826 351.03929257 399.39867743 354.12211609 399.50871277 C355.19397156 399.53965027 356.26582703 399.57058777 357.37016296 399.60246277 C358.39819031 399.64113464 359.42621765 399.67980652 360.48539734 399.71965027 C361.43326111 399.75107117 362.38112488 399.78249207 363.35771179 399.81486511 C365.80961609 400.13371277 365.80961609 400.13371277 368.80961609 402.13371277 C369.19779968 404.34855652 369.19779968 404.34855652 369.20805359 407.07121277 C369.21192078 408.04832214 369.21578796 409.02543152 369.21977234 410.03215027 C369.20237 411.56742371 369.20237 411.56742371 369.18461609 413.13371277 C369.20201843 414.66898621 369.20201843 414.66898621 369.21977234 416.23527527 C369.21590515 417.21238464 369.21203796 418.18949402 369.20805359 419.19621277 C369.2046698 420.09468933 369.20128601 420.99316589 369.19779968 421.91886902 C369.0696991 422.64976746 368.94159851 423.38066589 368.80961609 424.13371277 C365.10595042 426.60282322 362.29896092 426.41196573 358.01498413 426.38539505 C357.20875551 426.38830193 356.4025269 426.39120881 355.57186711 426.39420378 C352.84725007 426.40155209 350.12285485 426.39453804 347.39823914 426.38768005 C345.4343819 426.38998258 343.47052552 426.39315769 341.50667095 426.39713454 C336.09206847 426.40551982 330.67753606 426.4013404 325.26293325 426.39516211 C319.43055834 426.39065382 313.59819584 426.39761328 307.76582336 426.40312195 C296.3330669 426.41203501 284.90033663 426.41008544 273.46757913 426.40429667 C264.17943878 426.39978769 254.8913058 426.39916395 245.60316467 426.4013443 C244.28336536 426.40165077 242.96356605 426.40195723 241.60377282 426.40227298 C239.59502552 426.40274885 237.58627823 426.40323127 235.57753093 426.40372677 C210.46052015 426.40984865 185.34352368 426.40429169 160.2265151 426.39353297 C137.89776245 426.38404133 115.5690326 426.38489057 93.24028015 426.39445496 C68.17003561 426.40515767 43.09980373 426.40941454 18.02955723 426.40323043 C15.35839399 426.40258897 12.68723075 426.40196456 10.0160675 426.4013443 C8.70165812 426.40103575 7.38724873 426.4007272 6.03300875 426.4004093 C-3.24854069 426.39867937 -12.53008206 426.40160386 -21.81163025 426.40630341 C-33.11617716 426.41190121 -44.42069628 426.41041905 -55.72523999 426.39974192 C-61.49765761 426.39447034 -67.27002882 426.39245364 -73.04244614 426.39904022 C-78.31992214 426.40497117 -83.59730845 426.40177211 -88.87477624 426.39108512 C-90.79060793 426.3888389 -92.7064471 426.39001447 -94.62227404 426.39483669 C-97.21354322 426.400862 -99.80449951 426.39473789 -102.39575195 426.38539505 C-103.1506818 426.39007738 -103.90561165 426.39475971 -104.68341815 426.39958394 C-108.40628312 426.37250117 -110.00822088 426.25515479 -113.19038391 424.13371277 C-113.56269836 421.91886902 -113.56269836 421.91886902 -113.55366516 419.19621277 C-113.55302063 418.21910339 -113.5523761 417.24199402 -113.55171204 416.23527527 C-113.53559875 415.21175964 -113.51948547 414.18824402 -113.50288391 413.13371277 C-113.50610657 412.11019714 -113.50932922 411.08668152 -113.51264954 410.03215027 C-113.45727552 402.40060438 -113.45727552 402.40060438 -111.19038391 400.13371277 C-108.76020813 399.81486511 -108.76020813 399.81486511 -105.74507141 399.71965027 C-104.66870422 399.68097839 -103.59233704 399.64230652 -102.48335266 399.60246277 C-100.79145813 399.55605652 -100.79145813 399.55605652 -99.06538391 399.50871277 C-97.92971985 399.47004089 -96.79405579 399.43136902 -95.62397766 399.39152527 C-92.81294435 399.29703675 -90.00192159 399.21147736 -87.19038391 399.13371277 C-87.80164124 398.74336853 -88.41289856 398.35302429 -89.04267883 397.95085144 C-89.8481012 397.42725037 -90.65352356 396.90364929 -91.48335266 396.36418152 C-92.28023499 395.85008728 -93.07711731 395.33599304 -93.89814758 394.80632019 C-100.70818273 389.83714873 -104.38858618 382.22155762 -106.19038391 374.13371277 C-107.4356325 362.25302475 -105.69032571 351.67909324 -98.19038391 342.13371277 C-95.56538391 339.25871277 -95.56538391 339.25871277 -93.19038391 337.13371277 C-92.53038391 337.13371277 -91.87038391 337.13371277 -91.19038391 337.13371277 C-91.14094635 336.17802399 -91.09150879 335.22233521 -91.04057312 334.23768616 C-90.48104408 324.08702085 -89.4719707 314.04164001 -88.22944641 303.95402527 C-88.03612312 302.36419045 -87.84296048 300.7743361 -87.64994812 299.1844635 C-87.24812016 295.88490443 -86.84254195 292.58583221 -86.43452454 289.28703308 C-85.91546551 285.08581289 -85.40884561 280.88319354 -84.90532875 276.68008614 C-84.51155102 273.40888456 -84.10973893 270.13870575 -83.70571518 266.86875534 C-83.51557646 265.31993818 -83.32819005 263.77078026 -83.14377213 262.22127151 C-80.24396785 237.94377581 -80.24396785 237.94377581 -72.19038391 230.13371277 C-68.56515527 227.62098816 -64.86506154 225.62311628 -60.62397766 224.38371277 C-57.1946582 222.62226457 -56.45418639 220.45419506 -54.81538391 217.00871277 C-49.80682765 207.23933529 -44.24547024 200.85486826 -34.19038391 196.13371277 C-33.62102112 195.86083435 -33.05165833 195.58795593 -32.46504211 195.30680847 C-24.68327347 192.12535847 -16.37246426 192.8061157 -8.12788391 192.94621277 C-6.57906881 192.96128758 -5.0302395 192.97497103 -3.48139954 192.98722839 C0.28291567 193.01743959 4.04522741 193.0761924 7.80961609 193.13371277 C7.80961609 183.89371277 7.80961609 174.65371277 7.80961609 165.13371277 C5.04586609 165.19558777 2.28211609 165.25746277 -0.56538391 165.32121277 C-11.52630298 165.37124471 -18.73556336 164.04438609 -27.18257141 156.65715027 C-33.04829222 149.28505758 -33.77728037 141.97559423 -33.72383118 132.79606628 C-33.73675453 130.98939484 -33.73675453 130.98939484 -33.74993896 129.14622498 C-33.76865401 125.8670589 -33.76952749 122.58853587 -33.76061749 119.30934644 C-33.75547821 116.56103166 -33.76282385 113.81280587 -33.77008957 111.06450027 C-33.78704308 104.57569059 -33.78356907 98.08711633 -33.76679993 91.59831238 C-33.7498825 84.92762032 -33.76571752 78.25758287 -33.79802281 71.58696228 C-33.82480284 65.837154 -33.83197219 60.08754843 -33.82350773 54.33768409 C-33.81860289 50.91344695 -33.82065983 47.48960331 -33.84129524 44.06541634 C-33.8587833 40.24338185 -33.84415981 36.42273344 -33.82148743 32.60075378 C-33.83902573 30.92262856 -33.83902573 30.92262856 -33.85691833 29.21060181 C-33.75963377 21.11883296 -32.01902961 14.33139527 -26.44870853 8.22416019 C-18.88414966 1.14764393 -10.00765884 0.01367049 0 0 Z " fill="#2B9AEB" transform="translate(128.1903839111328,42.86628723144531)"/>
<path d="M0 0 C0.68904566 -0.00226556 1.37809133 -0.00453111 2.08801717 -0.00686532 C4.37845364 -0.01315492 6.66883018 -0.01237923 8.95927429 -0.0115509 C10.60908585 -0.01454554 12.25889672 -0.01794878 13.90870667 -0.02172852 C18.37783308 -0.03054168 22.84694034 -0.0329055 27.31607461 -0.0335443 C30.11176199 -0.03425633 32.90744454 -0.03639354 35.70313072 -0.03904152 C45.46641218 -0.04828607 55.22968001 -0.05237752 64.9929657 -0.05158997 C74.07755705 -0.05098942 83.16208898 -0.06153908 92.2466653 -0.07733363 C100.06006438 -0.09043148 107.87344409 -0.09577292 115.68685406 -0.09513456 C120.34731112 -0.09488023 125.00771533 -0.09769531 129.66816139 -0.10831261 C134.05372366 -0.11803143 138.43918298 -0.11804694 142.82474899 -0.11079597 C144.42827569 -0.10975483 146.03180893 -0.11208493 147.63532448 -0.11815643 C171.89335775 -0.20400972 171.89335775 -0.20400972 180.80961609 8.13371277 C185.36845324 14.20577738 187.91967904 19.53776433 187.95678711 27.1410675 C187.96752007 28.65480705 187.96752007 28.65480705 187.97846985 30.1991272 C187.98115875 31.30047501 187.98384766 32.40182281 187.98661804 33.5365448 C187.99318924 34.70124802 187.99976044 35.86595123 188.00653076 37.06594849 C188.02625765 40.92447474 188.03792577 44.78296205 188.04789734 48.64152527 C188.05197287 49.96031551 188.05604839 51.27910576 188.06024742 52.63785934 C188.07929102 58.89986352 188.09352176 65.161856 188.10185939 71.42388356 C188.1116182 78.63284691 188.13790532 85.84150211 188.17836028 93.05035698 C188.20861255 98.63441437 188.22333699 104.2183839 188.2266404 109.80252159 C188.22898128 113.13188017 188.23981514 116.46064876 188.26310158 119.78996658 C188.28751255 123.51172982 188.28652361 127.23269435 188.27958679 130.95451355 C188.29880188 132.58831718 188.29880188 132.58831718 188.31840515 134.25512695 C188.26088399 142.75495191 186.27427387 149.29174622 181.68461609 156.44621277 C175.28313716 162.43020394 167.66367343 165.28760991 158.94633484 165.23136902 C158.14671326 165.22887146 157.34709167 165.2263739 156.52323914 165.22380066 C155.52461853 165.21469666 154.52599792 165.20559265 153.49711609 165.19621277 C148.70180359 165.16527527 148.70180359 165.16527527 143.80961609 165.13371277 C143.80961609 174.37371277 143.80961609 183.61371277 143.80961609 193.13371277 C146.90723328 193.07570496 150.00485046 193.01769714 153.19633484 192.95793152 C156.23805692 192.9187988 159.27974962 192.88851824 162.32157898 192.85905457 C164.41545928 192.83410251 166.50925423 192.80012821 168.60282898 192.7565155 C183.4145441 192.45596745 195.265621 192.53434225 207.24711609 202.32121277 C213.03154152 207.95514908 217.1234309 214.52285475 219.80961609 222.13371277 C219.80961609 223.12371277 219.80961609 224.11371277 219.80961609 225.13371277 C218.39482971 225.15558655 218.39482971 225.15558655 216.95146179 225.17790222 C213.43802948 225.23910883 209.92536163 225.31328785 206.41239929 225.39616394 C204.89459987 225.42933193 203.37667953 225.45738909 201.85868835 225.48014832 C199.6712359 225.51384555 197.48488345 225.56616481 195.29789734 225.62199402 C193.98345642 225.6481781 192.6690155 225.67436218 191.31474304 225.70133972 C187.65623938 226.15263247 185.738688 226.94987158 182.80961609 229.13371277 C180.20247444 232.64520668 180.21404815 236.96839988 179.80961609 241.19621277 C179.35209984 245.80102908 178.80220649 250.33694921 177.93070984 254.88371277 C176.23917312 263.89141961 175.11447728 272.99314117 173.87211609 282.07121277 C172.35708426 293.10571068 170.83174883 304.13755466 169.18461609 315.15324402 C169.06228104 315.97372726 168.93994598 316.79421051 168.81390381 317.63955688 C168.19594252 321.73642723 167.52977314 325.81429852 166.74711609 329.88371277 C165.78028743 334.96555599 165.17345542 340.08118676 164.56156921 345.21476746 C163.96963148 350.09242763 163.17955085 354.89721423 162.24711609 359.71965027 C161.82243677 362.06297006 161.51463415 364.39284992 161.24711609 366.75871277 C160.80961609 370.13371277 160.80961609 370.13371277 159.80961609 371.13371277 C158.27698923 371.22513037 156.74022397 371.24833803 155.20487976 371.24382019 C153.73150398 371.2446888 153.73150398 371.2446888 152.22836304 371.24557495 C151.15560623 371.24346512 150.08284943 371.24135529 148.97758484 371.23918152 C146.71129936 371.25265239 144.4450227 371.26767821 142.17875671 371.28410339 C138.60203354 371.30681973 135.02629331 371.32131517 131.44950867 371.3087616 C111.64554805 370.75145632 111.64554805 370.75145632 94.82450867 379.97209167 C91.69520792 383.26848866 89.63687647 386.97161967 87.80961609 391.13371277 C83.48536031 387.86649729 80.51607953 385.44271015 78.80961609 380.13371277 C77.96352231 372.9325146 77.86126863 366.74887292 82.31742859 360.78215027 C86.4976636 356.16419431 90.68870738 352.59793992 97.06352234 351.87980652 C102.58065085 351.61869051 106.30245855 352.36762475 111.02055359 355.25871277 C113.07656402 356.42661333 113.07656402 356.42661333 116.80961609 356.13371277 C119.49262046 353.93645817 119.49262046 353.93645817 122.05961609 351.13371277 C122.95164734 350.20558777 123.84367859 349.27746277 124.76274109 348.32121277 C125.43820984 347.59933777 126.11367859 346.87746277 126.80961609 346.13371277 C124.01049529 343.19875942 121.56334325 340.67482426 117.87211609 338.94621277 C116.93045593 338.49181824 116.93045593 338.49181824 115.96977234 338.02824402 C105.9992578 333.89940527 94.50799629 333.24050079 84.30961609 337.13371277 C78.63777235 339.85212406 74.19500464 343.67080473 69.80961609 348.13371277 C69.00765808 347.81225281 68.20570007 347.49079285 67.37944031 347.15959167 C63.06191474 345.91884195 59.15963033 345.78241754 54.69242859 345.71965027 C53.83527252 345.70028412 52.97811646 345.68091797 52.09498596 345.66096497 C49.37496181 345.60150021 46.65489457 345.55491707 43.93461609 345.50871277 C42.08303581 345.47050247 40.23147272 345.43144898 38.37992859 345.39152527 C33.85663183 345.29582613 29.33325193 345.21167371 24.80961609 345.13371277 C24.900495 344.46468933 24.9913739 343.79566589 25.08500671 343.10636902 C27.17152311 327.16324373 28.11909739 311.455248 28.12211609 295.38371277 C28.12533875 294.55097839 28.1285614 293.71824402 28.13188171 292.86027527 C28.19570426 265.88461444 24.87963901 235.99002761 13.64555359 211.20402527 C6.76684449 195.79789101 6.94112244 181.69354844 7.80961609 165.13371277 C6.62625671 165.16851746 5.44289734 165.20332214 4.22367859 165.23918152 C-8.31700572 165.50462092 -17.36309093 165.24466641 -27.18257141 156.65715027 C-33.04829222 149.28505758 -33.77728037 141.97559423 -33.72383118 132.79606628 C-33.73244675 131.59161865 -33.74106232 130.38717102 -33.74993896 129.14622498 C-33.76865401 125.8670589 -33.76952749 122.58853587 -33.76061749 119.30934644 C-33.75547821 116.56103166 -33.76282385 113.81280587 -33.77008957 111.06450027 C-33.78704308 104.57569059 -33.78356907 98.08711633 -33.76679993 91.59831238 C-33.7498825 84.92762032 -33.76571752 78.25758287 -33.79802281 71.58696228 C-33.82480284 65.837154 -33.83197219 60.08754843 -33.82350773 54.33768409 C-33.81860289 50.91344695 -33.82065983 47.48960331 -33.84129524 44.06541634 C-33.8587833 40.24338185 -33.84415981 36.42273344 -33.82148743 32.60075378 C-33.83317963 31.48200363 -33.84487183 30.36325348 -33.85691833 29.21060181 C-33.75963377 21.11883296 -32.01902961 14.33139527 -26.44870853 8.22416019 C-18.88414966 1.14764393 -10.00765884 0.01367049 0 0 Z " fill="#2B9AEC" transform="translate(128.1903839111328,42.86628723144531)"/>
<path d="M0 0 C0.71280268 -0.00367669 1.42560537 -0.00735338 2.16000813 -0.01114148 C4.56055196 -0.02219894 6.96105253 -0.02602562 9.36161804 -0.02983093 C11.07791787 -0.03609399 12.79421634 -0.04274065 14.51051331 -0.04974365 C19.18206449 -0.06716718 23.85360542 -0.07770894 28.52518106 -0.08594918 C31.44224683 -0.09109612 34.3593094 -0.09717197 37.27637291 -0.10346031 C46.39866987 -0.12251556 55.52095871 -0.13674638 64.64327174 -0.14507228 C75.18196089 -0.15484908 85.72044024 -0.18117876 96.25905544 -0.22157317 C104.39923576 -0.25170638 112.53935585 -0.26653847 120.67959088 -0.26985329 C125.5440397 -0.27220684 130.40826447 -0.28120683 135.27265358 -0.30631447 C139.84863045 -0.32955159 144.42423507 -0.33384608 149.00025558 -0.32355309 C150.68006692 -0.32305656 152.35989631 -0.3294113 154.03965187 -0.34310913 C156.33287251 -0.36076369 158.62474789 -0.35375497 160.91796875 -0.34057617 C162.20127233 -0.34296453 163.4845759 -0.34535288 164.80676746 -0.34781361 C168.72584132 0.23252137 170.36570481 1.38454083 173.14945984 4.14717102 C176.9649484 11.77814815 173.38250118 23.91974172 172.17753601 31.96260071 C171.96500849 33.42073277 171.75314911 34.87896235 171.54190063 36.33728027 C170.97065587 40.26577981 170.38945461 44.19274332 169.8058145 48.11941814 C169.31813656 51.40691344 168.83545058 54.69513384 168.35274583 57.98336244 C167.2139207 65.74069121 166.06703178 73.4967975 164.9148407 81.25215149 C163.72838342 89.23900327 162.55474826 97.22766394 161.38750857 105.217345 C160.38217991 112.09594524 159.36935757 118.97341293 158.35045034 125.85001493 C157.74313453 129.9491105 157.13852666 134.04855674 156.54096031 138.149086 C155.97915915 142.00165283 155.40796215 145.85271285 154.82961464 149.70282936 C154.61950312 151.11200292 154.41263671 152.52166492 154.20933533 153.93183708 C151.84198545 170.32061439 151.84198545 170.32061439 147.58013535 174.79461479 C144.04082489 176.76407406 140.60428069 176.58797848 136.65615845 176.58195496 C135.79070532 176.59227945 134.92525219 176.60260395 134.03357321 176.61324131 C131.12804507 176.64398538 128.22285519 176.65319473 125.31718445 176.66230774 C123.23593702 176.67946684 121.15469888 176.69778526 119.07347107 176.71717834 C113.41408298 176.76511456 107.75478133 176.79266928 102.09523463 176.81360006 C98.5579782 176.82683542 95.02074717 176.84309173 91.48350716 176.8601265 C80.41234887 176.91190822 69.34125332 176.95003309 58.26999277 176.97055233 C45.49749735 176.99456714 32.72634849 177.06471461 19.9543094 177.17455471 C10.07811382 177.25656062 0.20230171 177.29619976 -9.67422861 177.30415547 C-15.57108293 177.3098991 -21.46654881 177.33363742 -27.36303902 177.40189743 C-32.91472447 177.46507067 -38.4640781 177.4755127 -44.01602173 177.44623566 C-46.04813935 177.44447823 -48.08037641 177.46138428 -50.11215019 177.498806 C-67.04853247 177.79294492 -67.04853247 177.79294492 -73.18414634 172.12143624 C-75.25440428 169.91986108 -77.10121321 167.60939598 -78.85054016 165.14717102 C-82.34417551 166.53649878 -82.34417551 166.53649878 -85.80757141 167.99873352 C-91.93417753 170.55256091 -96.8936661 171.2761593 -103.28804016 168.83467102 C-105.85054016 167.14717102 -105.85054016 167.14717102 -106.85054016 164.14717102 C-103.10097968 155.91068879 -96.28868063 150.26653456 -88.06216431 146.80311584 C-83.49501386 145.44854631 -78.73896041 145.66344217 -74.01069641 145.63545227 C-72.88860275 145.61750107 -71.76650909 145.59954987 -70.6104126 145.58105469 C-67.04465941 145.52709612 -63.47903901 145.49310151 -59.91304016 145.45967102 C-57.48789154 145.42648529 -55.0627604 145.39199447 -52.63764954 145.3561554 C-46.70873217 145.27137786 -40.77979731 145.20296689 -34.85054016 145.14717102 C-34.71776672 144.06250549 -34.58499329 142.97783997 -34.44819641 141.86030579 C-34.26987556 140.41555498 -34.09148653 138.97081258 -33.91304016 137.52607727 C-33.82602844 136.81374939 -33.73901672 136.10142151 -33.64936829 135.36750793 C-33.01989369 130.2865405 -32.22665744 125.2502838 -31.35054016 120.20576477 C-30.58864823 115.54512898 -30.003938 110.86339676 -29.41304016 106.17842102 C-28.84155007 101.87882481 -28.09865523 97.60966242 -27.37690735 93.33320618 C-26.51122324 88.09332788 -25.74499226 82.83939905 -24.97554016 77.58467102 C-24.62530375 75.20706332 -24.27504261 72.82945926 -23.92475891 70.45185852 C-23.74735168 69.24497375 -23.56994446 68.03808899 -23.38716125 66.79463196 C-22.03693013 57.61699183 -20.67407603 48.44121809 -19.31196594 39.26533508 C-18.8726649 36.29668272 -18.4372641 33.32748431 -18.00288391 30.35810852 C-17.40467193 26.27801497 -16.78803319 22.20122667 -16.15327454 18.12666321 C-15.88583968 16.37798431 -15.63997728 14.6260357 -15.39741516 12.87373352 C-14.54047045 7.46228636 -13.37455534 4.65328279 -8.85054016 1.14717102 C-5.90684431 -0.3246769 -3.28748766 0.0109572 0 0 Z " fill="#243757" transform="translate(322.8505401611328,267.8528289794922)"/>
<path d="M0 0 C1.29836288 -0.00700928 2.59672577 -0.01401855 3.93443298 -0.02124023 C7.4799162 -0.03940503 11.02493149 -0.03243532 14.57042241 -0.01972389 C18.28853271 -0.0095626 22.00660424 -0.01899803 25.72471619 -0.02526855 C31.96628987 -0.032535 38.20767389 -0.02298282 44.44921875 -0.00390625 C51.65722433 0.01787028 58.86477743 0.01080172 66.07277209 -0.01121187 C72.2717211 -0.02938324 78.47053419 -0.03191605 84.66950125 -0.0214572 C88.36743582 -0.01523297 92.06515791 -0.01435709 95.76307869 -0.02760315 C99.88529243 -0.04133918 104.00672992 -0.02228385 108.12890625 0 C109.34933624 -0.00809692 110.56976624 -0.01619385 111.82717896 -0.02453613 C120.02982166 0.05765798 123.37505379 1.17903674 129.37475586 6.70507812 C132.85504538 12.72865614 130.87469202 21.24902692 130.26538086 27.98242188 C130.18748825 28.87772614 130.10959564 29.7730304 130.02934265 30.69546509 C129.77390468 33.61574624 129.51237997 36.53543499 129.24975586 39.45507812 C129.06816572 41.49080128 128.88660691 43.52652723 128.70507812 45.56225586 C128.3289747 49.76864157 127.94949709 53.97470969 127.56860352 58.18066406 C127.10079328 63.36248555 126.6505088 68.54564383 126.20632935 73.72953796 C125.87298481 77.59379292 125.52887318 81.4570365 125.18200684 85.32009888 C125.01961596 87.15132932 124.86145235 88.98293983 124.7076416 90.81491089 C124.49261563 93.36414959 124.26179566 95.91149196 124.02709961 98.45898438 C123.93811653 99.57933578 123.93811653 99.57933578 123.84733582 100.72232056 C123.28545598 106.5324187 121.8137296 109.9248207 117.43725586 113.76757812 C114.07081652 116.18450893 112.40643743 116.64389381 108.31988525 116.65802002 C106.83946243 116.66658524 106.83946243 116.66658524 105.32913208 116.67532349 C104.24236176 116.67644135 103.15559143 116.6775592 102.03588867 116.67871094 C100.89431305 116.68367584 99.75273743 116.68864075 98.5765686 116.6937561 C94.78533331 116.70840733 90.99413986 116.71518507 87.20288086 116.72070312 C84.57452391 116.72645264 81.94616697 116.73221039 79.31781006 116.73797607 C74.50566181 116.74755156 69.69352262 116.75344562 64.88136601 116.75647283 C57.80313849 116.76095007 50.72510441 116.77848076 43.6469357 116.80747342 C37.51415213 116.83171995 31.38144823 116.83941844 25.24861908 116.84114838 C22.64111021 116.84417754 20.0336022 116.85221487 17.42612457 116.86533356 C13.77766764 116.8823774 10.1296817 116.88051739 6.48120117 116.87402344 C5.40252777 116.88323822 4.32385437 116.892453 3.2124939 116.90194702 C-2.26805684 116.87137081 -6.3044207 116.68280921 -11.00024414 113.51757812 C-15.60578699 108.45762171 -15.86089434 103.2853 -16.37915039 96.75195312 C-16.47649475 95.69739929 -16.57383911 94.64284546 -16.6741333 93.55633545 C-16.98665718 90.12798801 -17.27504971 86.69809052 -17.56274414 83.26757812 C-17.77247005 80.90742227 -17.98365894 78.54739598 -18.19628906 76.1875 C-18.61728362 71.48642446 -19.02878163 66.78467398 -19.43188477 62.08203125 C-19.92322088 56.36522997 -20.44571144 50.65193903 -20.98461914 44.93945312 C-21.19647008 42.66580054 -21.40747735 40.3920723 -21.6178894 38.11828613 C-21.74565807 36.74082583 -21.87446679 35.36346151 -22.00442505 33.98620605 C-24.26119608 9.86745806 -24.26119608 9.86745806 -20.00024414 4.51757812 C-13.63166696 -0.28775627 -7.78193875 -0.05171493 0 0 Z " fill="#263959" transform="translate(169.000244140625,70.482421875)"/>
<path d="M0 0 C2.88518202 1.7652152 5.68647931 3.51412533 8 6 C8 9 8 9 5.59375 11.69921875 C4.5700032 12.70302243 3.5383946 13.69885649 2.5 14.6875 C1.97535156 15.19861328 1.45070312 15.70972656 0.91015625 16.23632812 C-0.38660904 17.49772708 -1.69246117 18.74977212 -3 20 C-5.73849244 18.94496941 -8.16817902 17.89831036 -10.6875 16.375 C-15.85288637 14.23087736 -20.87223952 14.03719373 -26.24609375 15.69140625 C-32.28873765 18.42144764 -36.48489527 22.80559359 -39 29 C-39.90467287 36.19929148 -39.86893719 42.47290094 -35.42578125 48.41796875 C-30.99481676 53.33451839 -26.88735722 55.70637045 -20.3125 56.375 C-15.87549717 56.2908064 -12.28859131 54.70559601 -8.296875 52.875 C-6 52 -6 52 -2 52 C-0.67985239 53.60389098 0.58162891 55.25640225 1.81080627 56.93103027 C6.94141823 62.20758008 11.00718328 62.98373141 18.25572205 63.18908691 C22.51582478 63.24729236 26.76762052 63.18111061 31.02709961 63.10351562 C33.37834969 63.09741585 35.72961486 63.09576171 38.08087158 63.09820557 C44.44680364 63.09254511 50.81079116 63.02560337 57.17619777 62.94807625 C63.16274641 62.88510198 69.14933543 62.86965974 75.13615174 62.85439938 C86.99161258 62.82281503 98.84637991 62.7480834 110.70141602 62.64453125 C122.20460787 62.54417259 133.70770817 62.45922439 145.21118164 62.3984375 C146.27553439 62.39280044 146.27553439 62.39280044 147.36138921 62.3870495 C155.10550603 62.34642127 162.84963843 62.30949015 170.59378147 62.27425385 C172.64650539 62.2648542 174.69922924 62.25543935 176.751953 62.2460044 C178.10484077 62.23981439 179.45772882 62.23368665 180.81061716 62.22762221 C189.41965104 62.18875937 198.02841714 62.13367847 206.63724029 62.06132603 C211.56268327 62.02102657 216.48815953 61.98821732 221.41366577 61.95671844 C223.703887 61.94014303 225.99408562 61.92002351 228.28424263 61.89617157 C231.40056135 61.86399883 234.51673146 61.84393443 237.63316345 61.82678223 C238.54754037 61.81413535 239.46191729 61.80148847 240.40400261 61.78845835 C241.23634031 61.78627346 242.06867801 61.78408856 242.92623806 61.78183746 C243.64570344 61.7756573 244.36516883 61.76947713 245.10643619 61.76310968 C247 62 247 62 250 64 C250.38818359 66.21484375 250.38818359 66.21484375 250.3984375 68.9375 C250.40230469 69.91460937 250.40617187 70.89171875 250.41015625 71.8984375 C250.39275391 73.43371094 250.39275391 73.43371094 250.375 75 C250.38660156 76.02351563 250.39820313 77.04703125 250.41015625 78.1015625 C250.40628906 79.07867187 250.40242188 80.05578125 250.3984375 81.0625 C250.39505371 81.96097656 250.39166992 82.85945313 250.38818359 83.78515625 C250.26008301 84.51605469 250.13198242 85.24695313 250 86 C246.29633433 88.46911045 243.48934483 88.27825297 239.20536804 88.25168228 C238.39913942 88.25458916 237.59291081 88.25749604 236.76225102 88.26049101 C234.03763399 88.26783933 231.31323876 88.26082527 228.58862305 88.25396729 C226.62476581 88.25626981 224.66090943 88.25944493 222.69705486 88.26342177 C217.28245238 88.27180705 211.86791997 88.26762764 206.45331717 88.26144934 C200.62094226 88.25694105 194.78857975 88.26390051 188.95620728 88.26940918 C177.52345081 88.27832224 166.09072055 88.27637268 154.65796304 88.2705839 C145.36982269 88.26607492 136.08168971 88.26545119 126.79354858 88.26763153 C125.47374927 88.267938 124.15394996 88.26824446 122.79415673 88.26856022 C120.78540943 88.26903608 118.77666214 88.2695185 116.76791484 88.270014 C91.65090406 88.27613588 66.53390759 88.27057892 41.41689901 88.2598202 C19.08814636 88.25032857 -3.24058348 88.2511778 -25.56933594 88.26074219 C-50.63958047 88.27144491 -75.70981236 88.27570177 -100.78005886 88.26951766 C-103.4512221 88.2688762 -106.12238534 88.26825179 -108.79354858 88.26763153 C-110.10795797 88.26732298 -111.42236736 88.26701443 -112.77660733 88.26669653 C-122.05815678 88.2649666 -131.33969815 88.26789109 -140.62124634 88.27259064 C-151.92579325 88.27818844 -163.23031237 88.27670628 -174.53485608 88.26602915 C-180.3072737 88.26075757 -186.07964491 88.25874087 -191.85206223 88.26532745 C-197.12953823 88.2712584 -202.40692454 88.26805934 -207.68439233 88.25737235 C-209.60022402 88.25512613 -211.51606319 88.2563017 -213.43189013 88.26112393 C-216.02315931 88.26714923 -218.6141156 88.26102512 -221.20536804 88.25168228 C-221.96029789 88.25636461 -222.71522774 88.26104695 -223.49303424 88.26587117 C-227.21589921 88.2387884 -228.81783697 88.12144202 -232 86 C-232.37231445 83.78515625 -232.37231445 83.78515625 -232.36328125 81.0625 C-232.36263672 80.08539063 -232.36199219 79.10828125 -232.36132812 78.1015625 C-232.34521484 77.07804687 -232.32910156 76.05453125 -232.3125 75 C-232.31572266 73.97648437 -232.31894531 72.95296875 -232.32226562 71.8984375 C-232.26689161 64.26689161 -232.26689161 64.26689161 -230 62 C-227.890625 61.77967834 -227.890625 61.77967834 -225.25 61.82055664 C-224.26136963 61.83039078 -223.27273926 61.84022491 -222.25415039 61.85035706 C-221.18028076 61.87009079 -220.10641113 61.88982452 -219 61.91015625 C-216.72786689 61.93059692 -214.45573137 61.95077051 -212.18359375 61.97070312 C-208.60032117 62.01401956 -205.01720648 62.06223965 -201.43408203 62.11645508 C-197.97689334 62.16507703 -194.51990922 62.1947381 -191.0625 62.22265625 C-190.00482422 62.24441422 -188.94714844 62.26617218 -187.85742188 62.28858948 C-176.79819112 62.36147766 -169.1556841 60.15247086 -161.1328125 52.40625 C-158.27493841 49.1819818 -156.43829532 46.04129718 -155 42 C-154.64421875 41.09507812 -154.2884375 40.19015625 -153.921875 39.2578125 C-152.85134889 35.47468211 -152.70577531 31.95795774 -152.75 28.0625 C-152.74226563 27.38509766 -152.73453125 26.70769531 -152.7265625 26.00976562 C-152.74539505 21.09917807 -153.590073 17.93474449 -155 13 C-137.84 13 -120.68 13 -103 13 C-102.5625 35.3125 -102.5625 35.3125 -102.43188477 42.34887695 C-102.39376278 44.18701945 -102.35529373 46.02515479 -102.31640625 47.86328125 C-102.2916925 49.29770569 -102.2916925 49.29770569 -102.26647949 50.7611084 C-102.24629761 51.6743689 -102.22611572 52.58762939 -102.20532227 53.52856445 C-102.18977798 54.32132278 -102.1742337 55.11408112 -102.15821838 55.93086243 C-102.06918774 58.19739774 -102.06918774 58.19739774 -101 61 C-96.53830334 63.63234066 -91.77230955 63.28946554 -86.75390625 63.265625 C-85.42080666 63.26849518 -85.42080666 63.26849518 -84.06077576 63.27142334 C-82.18561519 63.27278121 -80.31044511 63.26911264 -78.43530273 63.26074219 C-75.57579257 63.2500497 -72.71691243 63.26064446 -69.85742188 63.2734375 C-68.03124862 63.27211559 -66.20507576 63.26955254 -64.37890625 63.265625 C-63.52873428 63.26967346 -62.67856232 63.27372192 -61.80262756 63.27789307 C-57.21877215 63.24196174 -53.18937024 63.08663102 -49 61 C-47.98990727 58.18810928 -47.87370959 55.53832537 -47.87060547 52.5703125 C-47.86587723 51.26876221 -47.86587723 51.26876221 -47.86105347 49.94091797 C-47.8630777 49.01166504 -47.86510193 48.08241211 -47.8671875 47.125 C-47.86623077 46.16352051 -47.86527405 45.20204102 -47.86428833 44.21142578 C-47.8636085 42.1806634 -47.86544907 40.14989882 -47.86962891 38.11914062 C-47.87497991 35.01166907 -47.86967724 31.90434206 -47.86328125 28.796875 C-47.86394207 26.82291635 -47.8652233 24.84895779 -47.8671875 22.875 C-47.86415115 21.48112061 -47.86415115 21.48112061 -47.86105347 20.05908203 C-47.86420563 19.19138184 -47.86735779 18.32368164 -47.87060547 17.4296875 C-47.87140106 16.66897949 -47.87219666 15.90827148 -47.87301636 15.12451172 C-48.00181107 12.96969974 -48.40858823 11.07168399 -49 9 C-35.85057408 -4.38186527 -17.1519007 -9.19454349 0 0 Z " fill="#B9715F" transform="translate(247,381)"/>
<path d="M0 0 C3.31689641 -0.03339094 6.6338407 -0.05450866 9.95082664 -0.07724285 C11.03606621 -0.09235409 12.12130577 -0.10746532 13.23943138 -0.12303448 C23.47118171 -0.16603293 32.84832813 0.84169938 40.58363914 8.0751009 C45.1424763 14.14716551 47.6937021 19.47915246 47.73081017 27.08245564 C47.74154312 28.59619518 47.74154312 28.59619518 47.7524929 30.14051533 C47.75518181 31.24186314 47.75787071 32.34321095 47.7606411 33.47793293 C47.7672123 34.64263615 47.77378349 35.80733936 47.78055382 37.00733662 C47.80028071 40.86586287 47.81194882 44.72435019 47.82192039 48.5829134 C47.82599592 49.90170364 47.83007145 51.22049389 47.83427048 52.57924747 C47.85331407 58.84125165 47.86754481 65.10324413 47.87588245 71.36527169 C47.88564126 78.57423504 47.91192838 85.78289024 47.95238334 92.99174511 C47.98263561 98.5758025 47.99736005 104.15977203 48.00066346 109.74390972 C48.00300433 113.0732683 48.0138382 116.40203689 48.03712463 119.73135471 C48.06153561 123.45311795 48.06054667 127.17408248 48.05360985 130.89590168 C48.07282494 132.52970531 48.07282494 132.52970531 48.09242821 134.19651508 C48.03490705 142.69634004 46.04829693 149.23313435 41.45863914 156.3876009 C34.59539672 162.80324056 26.78447317 165.20686105 17.53816795 165.19103718 C16.32424873 165.19122349 15.11032951 165.1914098 13.85962486 165.19160175 C12.52251193 165.18659381 11.1853995 165.18144695 9.84828758 165.17617512 C8.43359993 165.17421495 7.01891172 165.17263263 5.60422325 165.17139912 C0.96711907 165.16525033 -3.66991584 165.14801578 -8.30698586 165.1297884 C-9.90688759 165.12399433 -11.50678943 165.1182279 -13.10669136 165.11248875 C-19.76370572 165.08782385 -26.42069744 165.06029642 -33.07766533 165.02514172 C-42.60028986 164.97493225 -52.1226273 164.94151863 -61.64538217 164.93185318 C-68.35142107 164.92369372 -75.05722142 164.89649385 -81.76313758 164.85524666 C-85.76359055 164.83112325 -89.76367594 164.81516547 -93.76420784 164.81951237 C-97.53036854 164.82316547 -101.29568336 164.80309973 -105.06164932 164.76533413 C-107.09112685 164.75090783 -109.12073269 164.76088908 -111.15023232 164.77177143 C-120.09263917 164.64964426 -125.93954248 162.94489305 -132.72104836 157.0829134 C-133.23925148 156.46158527 -133.75745461 155.84025715 -134.29136086 155.2001009 C-134.82503273 154.58392902 -135.35870461 153.96775715 -135.90854836 153.3329134 C-140.5872326 146.32700797 -140.85809108 140.40278519 -140.83628273 132.14809895 C-140.84475227 130.96345051 -140.85322182 129.77880207 -140.86194801 128.5582552 C-140.88127696 125.32452757 -140.88709936 122.09115549 -140.8852005 118.85738063 C-140.88508034 116.14894147 -140.89366335 113.44055555 -140.90197802 110.7321313 C-140.92117951 104.33640821 -140.92410825 97.94081561 -140.91733742 91.5450716 C-140.91070285 84.96873227 -140.9335442 78.3929547 -140.97065115 71.81672925 C-141.001444 66.15190253 -141.01269775 60.48725561 -141.00881433 54.82234699 C-141.00675621 51.44724 -141.01207865 48.07257012 -141.03670692 44.69754314 C-141.05893151 40.92800935 -141.04917408 37.1598171 -141.03159523 33.39028645 C-141.04485847 32.28709568 -141.05812172 31.18390491 -141.07178688 30.04728413 C-140.98104311 21.6392584 -138.85581596 15.07178616 -133.31870461 8.6376009 C-132.67030617 8.1219759 -132.02190773 7.6063509 -131.35386086 7.0751009 C-130.37739601 6.2707259 -130.37739601 6.2707259 -129.38120461 5.4501009 C-122.29979078 0.49451906 -114.42321147 0.92042885 -106.07602882 0.86977863 C-105.05844994 0.85987904 -104.04087105 0.84997944 -102.99245644 0.83977985 C-99.63117708 0.80823896 -96.2698844 0.78339309 -92.90854836 0.75869465 C-90.54421606 0.7380759 -88.17988704 0.71707832 -85.81556129 0.69572163 C-80.84755267 0.65178668 -75.87953195 0.61088624 -70.91147804 0.57241535 C-64.63033077 0.52376091 -58.34924073 0.47007323 -52.06815147 0.41447735 C-40.23513612 0.30974674 -28.40211042 0.21634965 -16.5688839 0.13890362 C-11.04578291 0.10236245 -5.52291024 0.058663 0 0 Z M-121.33750343 34.48721027 C-124.8680364 42.95601531 -122.07053385 54.65532356 -121.22886086 63.5751009 C-121.09646048 65.00249515 -120.96422347 66.42990456 -120.83213234 67.85732746 C-120.61316851 70.21744512 -120.39314438 72.57744642 -120.1705265 74.93722248 C-119.60108691 80.99356539 -119.06975005 87.05261241 -118.55022621 93.11343098 C-118.14188281 97.84114153 -117.71850746 102.56744292 -117.29267311 107.29360676 C-117.08408866 109.64091714 -116.88127349 111.98874759 -116.68433571 114.33706379 C-116.40403238 117.66285433 -116.10204899 120.98603726 -115.79526711 124.3094759 C-115.71605019 125.30811665 -115.63683327 126.30675739 -115.55521584 127.33565998 C-115.01714139 132.89480152 -114.31244504 136.79460307 -110.41636086 141.0751009 C-104.84270563 144.8190751 -99.46925199 144.50631684 -92.99839211 144.47915363 C-91.85623238 144.48601688 -90.71407265 144.49288013 -89.53730202 144.49995136 C-85.76769464 144.5182297 -81.99850298 144.51438054 -78.22886086 144.50869465 C-75.6062195 144.51325557 -72.98357935 144.51856087 -70.36094093 144.52457905 C-64.86667856 144.53459856 -59.37253398 144.53131861 -53.87827492 144.52114582 C-47.53540594 144.50966102 -41.1929596 144.52374996 -34.85014629 144.55054229 C-28.73653729 144.57539533 -22.62312288 144.57787343 -16.50946999 144.57142544 C-13.91312901 144.57127202 -11.31677997 144.57733352 -8.72046852 144.58971691 C-5.09143519 144.60458859 -1.4633337 144.59397688 2.16567039 144.57680988 C3.23805962 144.58647785 4.31044884 144.59614582 5.4153347 144.60610676 C12.73887269 144.53353799 15.88521718 143.26339569 21.39613914 138.5126009 C23.82512714 135.57224701 23.86260095 132.1103627 24.2162075 128.45571613 C24.3298011 127.29857609 24.4433947 126.14143604 24.56043053 124.94923115 C24.68023781 123.6901041 24.80004509 122.43097706 24.92348289 121.13369465 C25.05050087 119.82344822 25.17751884 118.51320179 25.30838585 117.16325092 C25.5787164 114.37162575 25.84659708 111.57977942 26.11269188 108.78774738 C26.44591364 105.29265008 26.78432813 101.79808179 27.12447739 98.30365276 C28.44248441 84.74776377 29.70457401 71.18832864 30.77504539 57.61025715 C30.85866829 56.57074406 30.94229118 55.53123096 31.0284481 54.46021748 C32.33231079 44.33309729 32.33231079 44.33309729 30.41176414 34.73525715 C29.63059227 33.9444173 29.63059227 33.9444173 28.83363914 33.1376009 C28.32317039 32.59232746 27.81270164 32.04705402 27.28676414 31.48525715 C23.65467062 28.47795035 20.74755683 27.82377429 16.06256676 27.80767536 C14.93968758 27.79914539 13.8168084 27.79061543 12.65990257 27.78182697 C10.81847176 27.78318653 10.81847176 27.78318653 8.93984032 27.78457355 C7.6435218 27.77785633 6.34720329 27.77113911 5.0116024 27.76421833 C1.45774469 27.74655834 -2.09601668 27.74186291 -5.64991403 27.74058676 C-7.87184921 27.73916439 -10.09375997 27.73489313 -12.31568909 27.72959232 C-20.07199977 27.71109076 -27.82824173 27.7029217 -35.58457375 27.70449543 C-42.80666822 27.70569628 -50.02846358 27.68460555 -57.25048238 27.6530081 C-63.45700476 27.62682448 -69.66342958 27.61612903 -75.87000674 27.61740625 C-79.57419741 27.61791535 -83.27812234 27.61226132 -86.98225784 27.59105015 C-91.11650468 27.56802243 -95.25008505 27.57720133 -99.38437843 27.58926105 C-100.60592628 27.57802204 -101.82747414 27.56678303 -103.08603859 27.55520344 C-110.77820716 27.61224155 -116.28031512 28.13760796 -121.33750343 34.48721027 Z " fill="#6FAEFE" transform="translate(268.41636085510254,42.924899101257324)"/>
<path d="M0 0 C1.3803253 0.0002824 2.76065074 0.00012311 4.14097595 -0.0004425 C7.87186069 -0.00072843 11.60271303 0.00513513 15.33359027 0.01213145 C19.23867295 0.01839915 23.14375645 0.01897149 27.04884338 0.02015686 C34.43638818 0.02326012 41.8239181 0.03145993 49.21145636 0.04150635 C57.62499948 0.05269874 66.03854333 0.05818581 74.45209205 0.06320179 C91.75265654 0.0736434 109.05320658 0.09122334 126.35375977 0.11352539 C126.35375977 0.44352539 126.35375977 0.77352539 126.35375977 1.11352539 C125.52356874 1.11849061 125.52356874 1.11849061 124.67660618 1.12355614 C111.17917037 1.20495008 97.68184609 1.29721807 84.18456364 1.40105247 C77.65724362 1.4509413 71.12993921 1.4972721 64.60253906 1.53540039 C58.30010828 1.57234667 51.99781042 1.61873216 45.6954937 1.6715889 C43.29424821 1.6900832 40.89297427 1.70520936 38.49168587 1.71686935 C35.12143545 1.7338167 31.75148619 1.76287254 28.38134766 1.79467773 C27.39447464 1.79683792 26.40760162 1.79899811 25.39082336 1.80122375 C16.85435041 1.90374689 9.16548849 2.5402928 2.35375977 8.11352539 C-5.18273644 16.0005563 -6.09386793 22.55358865 -6.06616211 33.04052734 C-6.07886642 34.8175 -6.07886642 34.8175 -6.09182739 36.63037109 C-6.11115634 39.86409872 -6.11697873 43.0974708 -6.11507988 46.33124566 C-6.11495972 49.03968482 -6.12354273 51.74807074 -6.1318574 54.45649499 C-6.15105889 60.85221808 -6.15398763 67.24781068 -6.1472168 73.64355469 C-6.14058223 80.21989402 -6.16342358 86.79567159 -6.20053053 93.37189704 C-6.23132338 99.03672375 -6.24257713 104.70137068 -6.23869371 110.3662793 C-6.23663559 113.74138629 -6.24195803 117.11605616 -6.2665863 120.49108315 C-6.28881089 124.26061694 -6.27905346 128.02880919 -6.26147461 131.79833984 C-6.27473785 132.90153061 -6.2880011 134.00472137 -6.30166626 135.14134216 C-6.21490597 143.1802711 -4.46854381 150.0126332 1.13846588 156.02830982 C2.81926253 157.57682428 4.43278803 158.87281729 6.35375977 160.11352539 C7.13308868 160.62546951 7.9124176 161.13741364 8.71536255 161.66487122 C13.97927793 163.76073721 18.89190942 163.55292535 24.50952148 163.54589844 C26.3396302 163.56118591 26.3396302 163.56118591 28.20671082 163.57678223 C31.53902222 163.60174076 34.87089333 163.61362726 38.20325994 163.6196363 C41.69067956 163.62903781 45.1779726 163.65524257 48.66531372 163.67964172 C55.26308343 163.72326171 61.8608285 163.75183622 68.45869839 163.77496511 C75.97267325 163.80204099 83.48652049 163.84595097 91.00040412 163.89125383 C106.45147131 163.98403567 121.90252522 164.05352381 137.35375977 164.11352539 C137.35375977 173.68352539 137.35375977 183.25352539 137.35375977 193.11352539 C92.47375977 193.11352539 47.59375977 193.11352539 1.35375977 193.11352539 C1.35375977 183.87352539 1.35375977 174.63352539 1.35375977 165.11352539 C-1.40999023 165.17540039 -4.17374023 165.23727539 -7.02124023 165.30102539 C-17.98215931 165.35105733 -25.19141968 164.02419872 -33.63842773 156.63696289 C-39.50414854 149.2648702 -40.23313669 141.95540685 -40.1796875 132.77587891 C-40.18830307 131.57143127 -40.19691864 130.36698364 -40.20579529 129.1260376 C-40.22451034 125.84687153 -40.22538382 122.56834849 -40.21647382 119.28915906 C-40.21133453 116.54084429 -40.21868017 113.79261849 -40.22594589 111.04431289 C-40.24289941 104.55550321 -40.23942539 98.06692896 -40.22265625 91.578125 C-40.20573882 84.90743294 -40.22157385 78.2373955 -40.25387913 71.5667749 C-40.28065917 65.81696662 -40.28782851 60.06736105 -40.27936405 54.31749672 C-40.27445922 50.89325957 -40.27651616 47.46941594 -40.29715157 44.04522896 C-40.31463962 40.22319447 -40.30001613 36.40254606 -40.27734375 32.58056641 C-40.28903595 31.46181625 -40.30072815 30.3430661 -40.31277466 29.19041443 C-40.21549009 21.09864558 -38.47488594 14.31120789 -32.90456486 8.20397282 C-23.47248709 -0.61957563 -12.08609592 -0.03384346 0 0 Z " fill="#2B9BED" transform="translate(134.646240234375,42.886474609375)"/>
<path d="M0 0 C23.37488835 -0.11699511 46.74972815 -0.20506737 70.12485027 -0.25906086 C80.97924802 -0.28480151 91.83346345 -0.31987276 102.68774414 -0.37719727 C112.15245895 -0.4271591 121.61704166 -0.45932107 131.08188468 -0.47044247 C136.08977197 -0.47693962 141.09728146 -0.49212299 146.10504723 -0.52865028 C150.82715057 -0.56281198 155.54872368 -0.57301256 160.27093887 -0.56553841 C161.99578174 -0.56690399 163.72064397 -0.57671561 165.44537926 -0.59602737 C179.60191053 -0.74664366 191.24285156 1.20604566 201.83984375 11.52734375 C206.6261576 17.0060719 212 24.47815522 212 32 C207.41687916 32.11605098 202.83413551 32.18720362 198.25 32.25 C196.94804687 32.28351563 195.64609375 32.31703125 194.3046875 32.3515625 C193.05429687 32.36445313 191.80390625 32.37734375 190.515625 32.390625 C188.78747559 32.4220459 188.78747559 32.4220459 187.02441406 32.45410156 C183.32706041 31.89896128 182.41618659 30.75422223 180 28 C176.71148591 25.91034126 174.06021811 25.74225924 170.20404053 25.7215271 C169.0205603 25.71036362 167.83708008 25.69920013 166.61773682 25.68769836 C165.32301453 25.68553818 164.02829224 25.68337799 162.69433594 25.68115234 C161.31444716 25.6718522 159.934564 25.6616834 158.5546875 25.65071106 C154.81125402 25.62340655 151.06785819 25.60826035 147.32435131 25.59528303 C143.4111976 25.57965445 139.49812078 25.55286336 135.58502197 25.5272522 C128.17616374 25.48045956 120.76729105 25.44371781 113.35836053 25.41057932 C104.92307243 25.37236136 96.48786155 25.32295035 88.05263853 25.27259517 C70.70181487 25.16926811 53.35094652 25.08001023 36 25 C36.26116073 26.079128 36.26116073 26.079128 36.52759743 27.18005657 C37.32269586 30.46890343 38.1157104 33.75824941 38.90869141 37.04760742 C39.18262222 38.17934135 39.45655304 39.31107529 39.73878479 40.47710419 C48.57427018 77.16841211 47.75517285 114.75114604 43 152 C34.42 152 25.84 152 17 152 C17.495 148.04 17.99 144.08 18.5 140 C19.90321764 127.40577066 20.31012118 114.9148336 20.3125 102.25 C20.31572266 101.41726563 20.31894531 100.58453125 20.32226562 99.7265625 C20.40113335 66.39180373 13.08019631 34.64060566 0.63916016 3.8215332 C0 2 0 2 0 0 Z " fill="#6FAEFE" transform="translate(136,236)"/>
<path d="M0 0 C6.42136715 3.72375822 11.21650668 8.9219601 13.5625 16 C14.34737931 26.01486229 13.19846552 35.98083732 11.8828125 45.90234375 C11.70741818 47.2773661 11.53286719 48.65249625 11.35910034 50.02772522 C10.90449995 53.60802126 10.43885636 57.18679019 9.97058105 60.76531982 C9.50106457 64.36808438 9.04192466 67.97216855 8.58203125 71.57617188 C7.74584775 78.12009286 6.90230717 84.66300668 6.04400635 91.20407104 C5.69951468 93.91985228 5.37326399 96.63377963 5.0668335 99.35379028 C4.98301359 100.07757905 4.89919369 100.80136782 4.81283379 101.54708958 C4.57893087 103.57677803 4.3527001 105.60734635 4.12692261 107.63795471 C3.63624037 110.56075737 3.08328269 112.49625186 1.5625 115 C1.06621094 114.60167969 0.56992188 114.20335937 0.05859375 113.79296875 C-0.62074219 113.26316406 -1.30007812 112.73335938 -2 112.1875 C-2.66128906 111.66542969 -3.32257813 111.14335937 -4.00390625 110.60546875 C-11.26262466 105.81681182 -17.2513653 105.50697377 -25.8125 105.5625 C-26.89789063 105.54251953 -27.98328125 105.52253906 -29.1015625 105.50195312 C-36.16554346 105.50621881 -41.23757307 106.65399885 -47.4375 110 C-46.86211451 98.87709163 -45.8379484 87.87292255 -44.4765625 76.8203125 C-44.28323921 75.23047768 -44.09007656 73.64062333 -43.89706421 72.05075073 C-43.49523625 68.75119166 -43.08965804 65.45211944 -42.68164062 62.15332031 C-42.1625816 57.95210012 -41.6559617 53.74948077 -41.15244484 49.54637337 C-40.75866711 46.27517179 -40.35685501 43.00499299 -39.95283127 39.73504257 C-39.76269254 38.18622541 -39.57530614 36.63706749 -39.39088821 35.08755875 C-36.3583098 9.6984626 -36.3583098 9.6984626 -26.5390625 1.39453125 C-18.66087999 -3.83318466 -8.50916804 -3.81356007 0 0 Z " fill="#FDC300" transform="translate(84.4375,270)"/>
<path d="M0 0 C0.88365234 0.02255859 1.76730469 0.04511719 2.67773438 0.06835938 C4.8483891 0.12702572 7.0181669 0.21670021 9.1875 0.3125 C8.23230469 1.55773437 8.23230469 1.55773437 7.2578125 2.828125 C4.89595525 6.37819413 4.39862558 9.87643599 4.0625 14.0625 C3.61153833 18.50417048 3.16376297 22.8868555 2.1875 27.25 C1.05422814 32.48252865 0.5250554 37.75900813 -0.0625 43.07397461 C-0.49210497 46.86700054 -0.99429865 50.57945632 -1.8125 54.3125 C-2.75650442 58.63735748 -3.26918632 62.97934041 -3.75 67.375 C-4.44211285 73.64992805 -5.40336426 79.81339263 -6.56616211 86.02172852 C-7.9068074 93.41641954 -8.84786947 100.86117465 -9.8125 108.3125 C-11.04960531 117.83961936 -12.40257179 127.30101164 -14.15625 136.74609375 C-15.00265461 141.34589977 -15.71755843 145.96022577 -16.40625 150.5859375 C-16.72840886 152.74811905 -17.07811556 154.90619339 -17.4375 157.0625 C-17.73873916 159.67323936 -18.03094242 162.25266056 -18.1875 164.875 C-18.26097656 165.92880859 -18.26097656 165.92880859 -18.3359375 167.00390625 C-17.52856189 170.56479421 -15.185182 172.56628376 -12.8125 175.3125 C-20.58547558 175.59289519 -28.35713521 175.7846431 -36.1340332 175.91674805 C-38.77547938 175.97184887 -41.41659335 176.0467556 -44.05688477 176.14233398 C-68.43002795 177.00212983 -68.43002795 177.00212983 -74.7039032 171.32832336 C-76.6751696 169.13592179 -78.32168201 166.8532705 -79.8125 164.3125 C-83.30613535 165.70182776 -83.30613535 165.70182776 -86.76953125 167.1640625 C-92.89613737 169.71788989 -97.85562594 170.44148828 -104.25 168 C-106.8125 166.3125 -106.8125 166.3125 -107.8125 163.3125 C-104.06293952 155.07601777 -97.25064047 149.43186354 -89.02412415 145.96844482 C-84.4569737 144.61387529 -79.70092024 144.82877115 -74.97265625 144.80078125 C-73.85056259 144.78283005 -72.72846893 144.76487885 -71.57237244 144.74638367 C-68.00661925 144.6924251 -64.44099885 144.65843049 -60.875 144.625 C-58.44985138 144.59181427 -56.02472024 144.55732345 -53.59960938 144.52148438 C-47.67069201 144.43670684 -41.74175715 144.36829587 -35.8125 144.3125 C-35.67972656 143.22783447 -35.54695313 142.14316895 -35.41015625 141.02563477 C-35.2318354 139.58088396 -35.05344637 138.13614156 -34.875 136.69140625 C-34.78798828 135.97907837 -34.70097656 135.26675049 -34.61132812 134.53283691 C-33.98185352 129.45186948 -33.18861728 124.41561278 -32.3125 119.37109375 C-31.55060807 114.71045796 -30.96589784 110.02872574 -30.375 105.34375 C-29.80350991 101.04415379 -29.06061507 96.7749914 -28.33886719 92.49853516 C-27.47318308 87.25865686 -26.7069521 82.00472803 -25.9375 76.75 C-25.58726359 74.3723923 -25.23700245 71.99478824 -24.88671875 69.6171875 C-24.70931152 68.41030273 -24.5319043 67.20341797 -24.34912109 65.95996094 C-22.99888997 56.78232081 -21.63603587 47.60654707 -20.27392578 38.43066406 C-19.83462474 35.4620117 -19.39922394 32.49281329 -18.96484375 29.5234375 C-18.36663177 25.44334395 -17.74999302 21.36655565 -17.11523438 17.29199219 C-16.84779952 15.54331329 -16.60193712 13.79136468 -16.359375 12.0390625 C-16.22015625 11.15992188 -16.0809375 10.28078125 -15.9375 9.375 C-15.83695312 8.68535156 -15.73640625 7.99570312 -15.6328125 7.28515625 C-12.47126931 -0.31760238 -7.20392425 -0.3491835 0 0 Z " fill="#182A3E" transform="translate(323.8125,268.6875)"/>
<path d="M0 0 C0.75127167 -0.00807175 1.50254333 -0.01614349 2.27658081 -0.02445984 C3.86860866 -0.03828536 5.46066595 -0.04901437 7.05273438 -0.05688477 C8.66838364 -0.06836506 10.28399617 -0.08875398 11.89941406 -0.1184082 C22.76472834 -0.31776155 31.47311466 -0.12117444 40.0546875 7.23828125 C51.24024137 19.28226135 53.05851774 35.50791923 52.50341797 51.17138672 C52.17977875 56.08165489 50.9235922 60.59406964 49.3671875 65.23828125 C49.01527344 66.33011719 48.66335937 67.42195313 48.30078125 68.546875 C44.24084425 80.13712418 37.19662632 90.44245658 25.89453125 95.921875 C20.33097261 97.89239617 14.69610698 97.56174289 8.8671875 97.42578125 C7.20429687 97.40547852 7.20429687 97.40547852 5.5078125 97.38476562 C2.79375518 97.34967006 0.08073557 97.30050395 -2.6328125 97.23828125 C-1.78061617 87.90897409 -0.83427847 78.601168 0.390625 69.3125 C0.48065796 68.6229422 0.57069092 67.9333844 0.66345215 67.22293091 C1.11247458 63.7881485 1.57112117 60.35514415 2.04589844 56.92382812 C4.81844535 39.94793944 4.81844535 39.94793944 0.6953125 23.87890625 C-4.02714307 18.04528466 -9.7250332 13.9722893 -17.296875 12.83984375 C-19.74210485 12.58498881 -22.17875132 12.38147597 -24.6328125 12.23828125 C-17.61221934 4.53827585 -10.50681815 0.10751756 0 0 Z " fill="#18293E" transform="translate(93.6328125,255.76171875)"/>
<path d="M0 0 C1.64814697 0.01933594 1.64814697 0.01933594 3.32958984 0.0390625 C13.84211166 0.37671376 20.94065009 2.70540683 28.5 10.3125 C36.15432945 20.25562405 37.93155053 30.52932651 36.5625 42.6875 C35.64253171 46.31133449 34.36568031 49.42041372 32.5625 52.6875 C32.005625 53.71875 31.44875 54.75 30.875 55.8125 C24.207446 64.10189145 17.66594147 68.76634474 6.94873047 69.98461914 C4.31164913 70.12277551 1.70290544 70.15552772 -0.9375 70.125 C-2.31832764 70.11364014 -2.31832764 70.11364014 -3.72705078 70.10205078 C-12.88154238 69.87932563 -20.0352886 67.87366668 -26.83984375 61.51953125 C-34.6564903 52.55618838 -36.9197744 43.18424453 -36.7578125 31.48828125 C-35.98198865 22.28246894 -32.08788857 15.22283125 -26.375 8.125 C-18.45687611 1.55464187 -10.07932271 -0.18519656 0 0 Z " fill="#273959" transform="translate(58.4375,374.3125)"/>
<path d="M0 0 C44.88 0 89.76 0 136 0 C136 9.57 136 19.14 136 29 C91.12 29 46.24 29 0 29 C0 19.43 0 9.86 0 0 Z " fill="#253959" transform="translate(136,207)"/>
<path d="M0 0 C1.37488335 -0.00855011 1.37488335 -0.00855011 2.77754211 -0.01727295 C4.72367187 -0.02674131 6.6698178 -0.03326418 8.6159668 -0.03710938 C11.58345965 -0.04677784 14.55024913 -0.07776827 17.51757812 -0.109375 C19.40754797 -0.11590855 21.29752277 -0.12115764 23.1875 -0.125 C24.07209396 -0.1373468 24.95668793 -0.1496936 25.86808777 -0.16241455 C30.96016801 -0.14416084 34.5482501 0.30317519 38.92578125 3.203125 C40.99842519 6.31209091 41.17721733 6.99374379 41.18457031 10.51928711 C41.19087463 11.38706284 41.19717896 12.25483856 41.20367432 13.14891052 C41.19962585 14.08332474 41.19557739 15.01773895 41.19140625 15.98046875 C41.19427643 17.42481041 41.19427643 17.42481041 41.19720459 18.89833069 C41.19856578 20.93507142 41.19487396 22.97182085 41.18652344 25.00854492 C41.17583472 28.12503594 41.18641504 31.24094897 41.19921875 34.35742188 C41.19789691 36.33593877 41.19533403 38.31445531 41.19140625 40.29296875 C41.19545471 41.22535873 41.19950317 42.15774872 41.20367432 43.11839294 C41.19737 43.98932083 41.19106567 44.86024872 41.18457031 45.75756836 C41.18297913 46.52129257 41.18138794 47.28501678 41.17974854 48.07188416 C40.8866041 50.53189151 40.23501053 52.10610252 38.92578125 54.203125 C33.91230419 57.60972457 29.38634438 57.64327324 23.546875 57.6015625 C22.65718521 57.60443268 21.76749542 57.60730286 20.85084534 57.61026001 C18.97746135 57.61229414 17.1040558 57.60680997 15.23071289 57.59423828 C12.36881962 57.57815612 9.50833441 57.59411872 6.64648438 57.61328125 C4.82161148 57.61129907 2.99673946 57.60745593 1.171875 57.6015625 C-0.1064193 57.61067154 -0.1064193 57.61067154 -1.41053772 57.6199646 C-6.10873175 57.56450586 -9.28189496 57.28311605 -13.07421875 54.203125 C-15.14801029 51.09243769 -15.33218437 50.35091196 -15.38061523 46.81103516 C-15.39660263 45.92646637 -15.41259003 45.04189758 -15.42906189 44.13052368 C-15.43442459 43.17737274 -15.43978729 42.2242218 -15.4453125 41.2421875 C-15.45434097 40.25946869 -15.46336945 39.27674988 -15.47267151 38.26425171 C-15.48718257 36.18466238 -15.49606287 34.1050273 -15.49975586 32.02539062 C-15.51164861 28.84687175 -15.56082329 25.67029634 -15.61132812 22.4921875 C-15.62079276 20.47136364 -15.6280276 18.45052786 -15.6328125 16.4296875 C-15.65234482 15.48058502 -15.67187714 14.53148254 -15.69200134 13.55361938 C-15.66004287 8.86914848 -15.62387635 6.88711681 -12.60180664 3.12646484 C-11.35065063 2.17441162 -11.35065063 2.17441162 -10.07421875 1.203125 C-7.92216116 -0.94893259 -2.98686524 0.01418755 0 0 Z " fill="#253858" transform="translate(159.07421875,387.796875)"/>
<path d="M0 0 C17.16 0 34.32 0 52 0 C52.4375 22.3125 52.4375 22.3125 52.56811523 29.34887695 C52.60623722 31.18701945 52.64470627 33.02515479 52.68359375 34.86328125 C52.7083075 36.29770569 52.7083075 36.29770569 52.73352051 37.7611084 C52.75370239 38.6743689 52.77388428 39.58762939 52.79467773 40.52856445 C52.81799416 41.71770195 52.81799416 41.71770195 52.84178162 42.93086243 C52.93081226 45.19739774 52.93081226 45.19739774 54 48 C54.66 48 55.32 48 56 48 C56 48.66 56 49.32 56 50 C30.26 50 4.52 50 -22 50 C-19.88387608 47.88387608 -18.56351528 47.3589275 -15.8125 46.3125 C-7.829508 42.83437969 -3.15332319 36.99539291 0 29 C0.35964844 28.0925 0.71929687 27.185 1.08984375 26.25 C2.14819784 22.47081285 2.29415372 18.95170643 2.25 15.0625 C2.25773437 14.38509766 2.26546875 13.70769531 2.2734375 13.00976562 C2.25460495 8.09917807 1.409927 4.93474449 0 0 Z " fill="#FBC200" transform="translate(92,394)"/>
<path d="M0 0 C2.88518202 1.7652152 5.68647931 3.51412533 8 6 C8 9 8 9 5.59375 11.69921875 C4.5700032 12.70302243 3.5383946 13.69885649 2.5 14.6875 C1.97535156 15.19861328 1.45070312 15.70972656 0.91015625 16.23632812 C-0.38660904 17.49772708 -1.69246117 18.74977212 -3 20 C-5.73849244 18.94496941 -8.16817902 17.89831036 -10.6875 16.375 C-15.85288637 14.23087736 -20.87223952 14.03719373 -26.24609375 15.69140625 C-32.28873765 18.42144764 -36.48489527 22.80559359 -39 29 C-39.90467287 36.19929148 -39.86893719 42.47290094 -35.42578125 48.41796875 C-30.99481676 53.33451839 -26.88735722 55.70637045 -20.3125 56.375 C-15.87549717 56.2908064 -12.28859131 54.70559601 -8.296875 52.875 C-6 52 -6 52 -2 52 C0.07285461 53.78334978 1.89299632 55.51627166 3.75 57.5 C4.25660156 58.02464844 4.76320312 58.54929687 5.28515625 59.08984375 C6.53265087 60.38441363 7.76757307 61.6910776 9 63 C0.96490902 71.52033626 -8.75605335 74.91815402 -20.25 75.4375 C-31.55379441 75.24102617 -41.12490803 69.87509197 -49 62 C-48.69372843 60.32814875 -48.35125597 58.6629817 -48 57 C-47.83684439 53.67674502 -47.85990026 50.35407852 -47.8671875 47.02734375 C-47.86623077 46.06727921 -47.86527405 45.10721466 -47.86428833 44.11805725 C-47.86360926 42.09327122 -47.86544448 40.06848299 -47.86962891 38.04370117 C-47.87498686 34.94510007 -47.86967163 31.84664352 -47.86328125 28.74804688 C-47.86394197 26.77864551 -47.86522299 24.80924424 -47.8671875 22.83984375 C-47.86516327 21.91372787 -47.86313904 20.987612 -47.86105347 20.03343201 C-47.86420563 19.1689595 -47.86735779 18.304487 -47.87060547 17.41381836 C-47.87140106 16.65612656 -47.87219666 15.89843475 -47.87301636 15.11778259 C-48.00205232 12.96577228 -48.4096576 11.0691283 -49 9 C-35.85057408 -4.38186527 -17.1519007 -9.19454349 0 0 Z " fill="#F9C203" transform="translate(247,381)"/>
<path d="M0 0 C5.89108334 3.29365114 9.79403491 7.19192739 13.265625 12.94140625 C13.64332031 13.54597656 14.02101562 14.15054687 14.41015625 14.7734375 C22.26525005 28.74785532 22.23378623 47.00037297 18.17480469 62.1652832 C14.21775953 75.43136021 7.90208636 86.18376534 -3.734375 93.94140625 C2.535625 94.27140625 8.805625 94.60140625 15.265625 94.94140625 C15.265625 95.27140625 15.265625 95.60140625 15.265625 95.94140625 C7.345625 95.94140625 -0.574375 95.94140625 -8.734375 95.94140625 C-7.85960538 86.61053031 -6.9362516 77.30740685 -5.7109375 68.015625 C-5.62090454 67.3260672 -5.53087158 66.6365094 -5.43811035 65.92605591 C-4.98908792 62.4912735 -4.53044133 59.05826915 -4.05566406 55.62695312 C-1.28311715 38.65106444 -1.28311715 38.65106444 -5.40625 22.58203125 C-10.12870557 16.74840966 -15.8265957 12.6754143 -23.3984375 11.54296875 C-25.84366735 11.28811381 -28.28031382 11.08460097 -30.734375 10.94140625 C-22.72607809 2.15811286 -12.1084006 -4.6876808 0 0 Z " fill="#253958" transform="translate(99.734375,257.05859375)"/>
<path d="M0 0 C5.86512645 2.34605058 10.09067242 6.41858615 13 12 C14.94880341 18.03622873 15.13844723 24.91653039 12.94140625 30.8671875 C10.28615968 35.71715007 7.49369704 39.3598203 2.26953125 41.4375 C-3.08624543 42.76492141 -8.21554761 43.27368941 -13.33984375 40.9296875 C-18.18132858 37.62990454 -21.5428903 33.71983435 -23 28 C-23.92115747 20.49037335 -24.13600772 13.76878987 -19.4296875 7.546875 C-13.79954905 1.45524979 -8.2566377 -1.30367964 0 0 Z " fill="#DBE8FB" transform="translate(58,388)"/>
<path d="M0 0 C3.76712267 2.45681914 7.04767513 5.32408167 8.484375 9.75390625 C10.26466608 19.4208868 8.3130531 26.7059948 2.875 34.875 C-0.92370054 39.18186005 -5.20335974 42.43391572 -11.03515625 43.08984375 C-15.58031588 43.30223439 -18.47518337 42.81513006 -22.125 39.875 C-27.4959246 33.907306 -27.64039852 28.45633151 -27.4609375 20.6796875 C-26.80205564 13.21746736 -23.46892533 8.8790738 -18.0625 3.9375 C-12.30474153 -0.88533531 -7.42554643 -2.67319672 0 0 Z " fill="#18293D" transform="translate(418.125,341.125)"/>
<path d="M0 0 C2.3925 -0.020625 4.785 -0.04125 7.25 -0.0625 C8.33909668 -0.07615601 8.33909668 -0.07615601 9.45019531 -0.09008789 C15.73866303 -0.11543143 21.64454176 0.47037848 28 1 C28 10.24 28 19.48 28 29 C18.76 29 9.52 29 0 29 C0 19.43 0 9.86 0 0 Z " fill="#18293D" transform="translate(136,207)"/>
<path d="M0 0 C10.72708522 -0.93429452 18.70827191 0.80499515 27.12890625 7.7578125 C34.19110417 15.04880733 37.45551599 24.10142102 37.5625 34.125 C37.45266233 40.72928193 36.19505794 46.21104484 33 52 C32.443125 53.03125 31.88625 54.0625 31.3125 55.125 C25.45889335 62.40245692 19.46777572 67.71071555 10 69 C5.32010956 69.20983867 0.68015113 69.18208081 -4 69 C-4 68.67 -4 68.34 -4 68 C-3.07380859 67.88785156 -3.07380859 67.88785156 -2.12890625 67.7734375 C6.43804997 66.44340777 12.77689093 63.06899528 18.3125 56.3125 C25.08160613 46.35682301 26.47456701 36.01321846 24.31640625 24.28515625 C23.60906953 21.16813653 22.84730986 18.08158527 22 15 C21.34 15 20.68 15 20 15 C19.5875 13.96875 19.175 12.9375 18.75 11.875 C15.62161955 6.28698709 9.61225533 4.46298705 4 2 C2.66229537 1.34214854 1.326893 0.67939473 0 0 Z " fill="#1F2E3B" transform="translate(58,375)"/>
<path d="M0 0 C0.78052734 -0.01160156 1.56105469 -0.02320312 2.36523438 -0.03515625 C4.62890625 -0.0234375 4.62890625 -0.0234375 8.4375 0.375 C11.81674189 5.44386284 10.76478923 11.42381414 10.75 17.375 C10.76611328 18.67179687 10.78222656 19.96859375 10.79882812 21.3046875 C10.79947266 22.54476562 10.80011719 23.78484375 10.80078125 25.0625 C10.80376221 26.20074219 10.80674316 27.33898437 10.80981445 28.51171875 C10.4375 31.375 10.4375 31.375 9.14526367 33.24462891 C6.19847251 35.19511398 2.8487252 34.80462816 -0.5625 34.75 C-1.28695312 34.76160156 -2.01140625 34.77320313 -2.7578125 34.78515625 C-7.98730822 34.7562107 -7.98730822 34.7562107 -10.26806641 33.24462891 C-12.15766916 30.5153611 -11.9511404 28.35805746 -11.9609375 25.0625 C-11.96480469 23.82242188 -11.96867188 22.58234375 -11.97265625 21.3046875 C-11.96105469 20.00789063 -11.94945312 18.71109375 -11.9375 17.375 C-11.94910156 16.07820313 -11.96070313 14.78140625 -11.97265625 13.4453125 C-11.96878906 12.20523438 -11.96492187 10.96515625 -11.9609375 9.6875 C-11.95755371 8.54925781 -11.95416992 7.41101563 -11.95068359 6.23828125 C-11.5625 3.375 -11.5625 3.375 -10.28393555 1.50537109 C-7.20031406 -0.51947184 -3.56506193 -0.05325404 0 0 Z " fill="#F7C002" transform="translate(186.5625,94.625)"/>
<path d="M0 0 C0.78503906 0.00773437 1.57007813 0.01546875 2.37890625 0.0234375 C3.55646484 0.01183594 3.55646484 0.01183594 4.7578125 0 C10.62559838 0.02012963 10.62559838 0.02012963 12.87890625 2.2734375 C13.27691163 6.39111268 13.20795342 10.51432412 13.19458008 14.6496582 C13.19142321 16.69992364 13.21486385 18.74874155 13.24023438 20.79882812 C13.24120117 22.73338867 13.24120117 22.73338867 13.2421875 24.70703125 C13.24516846 25.89353271 13.24814941 27.08003418 13.2512207 28.30249023 C12.87890625 31.2734375 12.87890625 31.2734375 11.58886719 33.16113281 C8.62128561 35.09150141 5.23505769 34.66150451 1.81640625 34.5859375 C0.7171582 34.59077148 0.7171582 34.59077148 -0.40429688 34.59570312 C-5.85387436 34.54065689 -5.85387436 34.54065689 -8.12109375 32.2734375 C-8.37988281 29.32421875 -8.37988281 29.32421875 -8.38671875 25.5859375 C-8.3886322 24.92762939 -8.39054565 24.26932129 -8.39251709 23.59106445 C-8.39387825 22.1990521 -8.39018658 20.80702703 -8.38183594 19.41503906 C-8.37113475 17.28161161 -8.38173281 15.14902619 -8.39453125 13.015625 C-8.39320964 11.66406064 -8.39064722 10.3124968 -8.38671875 8.9609375 C-8.38446289 7.72730469 -8.38220703 6.49367188 -8.37988281 5.22265625 C-7.88768202 -0.38657547 -4.9543165 0.01699594 0 0 Z " fill="#FCC300" transform="translate(243.12109375,94.7265625)"/>
<path d="M0 0 C5.85106504 0.16932343 9.74129614 2.53296735 13.9375 6.5 C22.29118588 17.0922553 24.33285796 29.3577484 22.9375 42.5 C21.39896598 50.59798284 18.92507361 58.80820845 13.9375 65.5 C12.4525 66.49 12.4525 66.49 10.9375 67.5 C11.34531725 59.42951125 11.88342389 51.44358826 13 43.4375 C15.36618381 28.32404727 15.36618381 28.32404727 11.2578125 14.13671875 C6.50265498 8.24201165 0.93375267 5.19696815 -6.0625 2.5 C-3.74876509 0.18626509 -3.15855071 0.13369527 0 0 Z " fill="#1E2D3C" transform="translate(83.0625,265.5)"/>
<path d="M0 0 C12.54 0 25.08 0 38 0 C36.86500888 6.80994671 36.86500888 6.80994671 33.75 10.25 C33.16734375 10.91515625 32.5846875 11.5803125 31.984375 12.265625 C27.05077226 16.57767149 21.52354095 16.54812287 15.234375 16.44140625 C10.24028786 15.75984605 7.3062321 13.72052654 4 10 C1.61255866 6.77593392 0 4.12142104 0 0 Z " fill="#FBC200" transform="translate(205,155)"/>
<path d="M0 0 C6.27 0 12.54 0 19 0 C18.0925 1.175625 17.185 2.35125 16.25 3.5625 C13.48803429 7.23421271 11.18662404 10.96315562 9 15 C4.65006316 11.71338106 2.0028777 9.22973621 0 4 C0 2.68 0 1.36 0 0 Z " fill="#71AEF9" transform="translate(207,419)"/>
</svg>
